<svg id="Layer_1" data-name="Layer 1" xmlns="http://www.w3.org/2000/svg" viewBox="0 0 300 300"><defs></defs><title>Caz Logo</title><circle class="cls-1" cx="150" cy="150" r="43.59"/><path class="cls-1" d="M150,0c82.71,0,150,67.29,150,150a43.6,43.6,0,1,1-87.19,0,62.81,62.81,0,0,0-125.62,0A43.6,43.6,0,1,1,0,150C0,67.29,67.29,0,150,0Z"/><path class="cls-1" d="M43.6,212.81a62.8,62.8,0,0,0,53.2-29.49,62.73,62.73,0,0,0,106.4,0,62.8,62.8,0,0,0,53.2,29.49,43.6,43.6,0,1,1,0,87.19,149.64,149.64,0,0,1-100-38.3L150,256l-6.41,5.74A149.64,149.64,0,0,1,43.6,300a43.6,43.6,0,1,1,0-87.19Z"/></svg>