<svg id="Layer_1" data-name="Layer 1" xmlns="http://www.w3.org/2000/svg" viewBox="0 0 300 300"><defs></defs><title>Instagram Icon</title><path class="cls-1" d="M150,27c40.05,0,44.8.15,60.61.87,14.63.67,22.57,3.11,27.86,5.17a46.44,46.44,0,0,1,17.24,11.22,46.44,46.44,0,0,1,11.22,17.24c2.06,5.29,4.5,13.23,5.17,27.86.72,15.81.87,20.56.87,60.61s-.15,44.8-.87,60.61c-.67,14.63-3.11,22.57-5.17,27.86a49.7,49.7,0,0,1-28.46,28.46c-5.29,2.06-13.23,4.5-27.86,5.17-15.81.72-20.56.87-60.61.87s-44.8-.15-60.61-.87c-14.63-.67-22.57-3.11-27.86-5.17a46.44,46.44,0,0,1-17.24-11.22,46.44,46.44,0,0,1-11.22-17.24c-2.06-5.29-4.5-13.23-5.17-27.86C27.18,194.8,27,190.05,27,150s.15-44.8.87-60.61c.67-14.63,3.11-22.57,5.17-27.86A46.44,46.44,0,0,1,44.29,44.29,46.44,46.44,0,0,1,61.53,33.07c5.29-2.06,13.23-4.5,27.86-5.17C105.2,27.18,110,27,150,27m0-27c-40.74,0-45.85.17-61.84.9s-26.87,3.27-36.42,7A73.64,73.64,0,0,0,25.18,25.18,73.64,73.64,0,0,0,7.87,51.74c-3.7,9.55-6.24,20.45-7,36.42S0,109.26,0,150s.17,45.85.9,61.84,3.27,26.87,7,36.42a73.64,73.64,0,0,0,17.31,26.56,73.64,73.64,0,0,0,26.56,17.31c9.55,3.7,20.45,6.24,36.42,7s21.1.9,61.84.9,45.85-.17,61.84-.9,26.87-3.27,36.42-7a76.83,76.83,0,0,0,43.87-43.87c3.7-9.55,6.24-20.45,7-36.42s.9-21.1.9-61.84-.17-45.85-.9-61.84-3.27-26.87-7-36.42a73.64,73.64,0,0,0-17.31-26.56A73.64,73.64,0,0,0,248.26,7.87c-9.55-3.7-20.45-6.24-36.42-7S190.74,0,150,0Z"/><path class="cls-1" d="M150,73a77,77,0,1,0,77,77A77,77,0,0,0,150,73Zm0,127a50,50,0,1,1,50-50A50,50,0,0,1,150,200Z"/><circle class="cls-1" cx="230.07" cy="69.93" r="18"/></svg>