<svg id="Layer_1" data-name="Layer 1" xmlns="http://www.w3.org/2000/svg" viewBox="0 0 300 300"><defs></defs><title>LinkedIn Icon</title><path class="cls-1" d="M268.35,0H31.65A29.94,29.94,0,0,0,1.75,30V270a29.94,29.94,0,0,0,29.9,30h236.7a29.94,29.94,0,0,0,29.9-30V30A29.94,29.94,0,0,0,268.35,0ZM97.65,242H57.76V113.65H97.65ZM77.44,97.91c-12.59,0-20.73-8.93-20.73-20C56.71,66.68,65.11,58,78,58S98.7,66.68,99,78C99,89,90.82,97.91,77.44,97.91ZM243.29,242H203.4V170.86c0-16.53-5.77-27.81-20.21-27.81-11,0-17.58,7.61-20.47,14.95-1,2.63-1.31,6.3-1.31,10v74H121.52V154.59c0-16-.52-29.39-1-40.94h34.64L157,131.5h.79c5.25-8.4,18.11-20.74,39.63-20.74,26.24,0,45.92,17.59,45.92,55.38Z"/></svg>