<svg id="Layer_1" data-name="Layer 1" xmlns="http://www.w3.org/2000/svg" viewBox="0 0 300 300"><defs></defs><title>Mail Icon</title><path class="cls-1" d="M294.81,140.62l-50.94-32V11.13A10.54,10.54,0,0,0,233.33.59H66.67A10.54,10.54,0,0,0,56.13,11.13v96.38L5.06,140.71A11.09,11.09,0,0,0,0,150V288.91A11.11,11.11,0,0,0,11.11,300H288.89A11.11,11.11,0,0,0,300,288.91V150A11.1,11.1,0,0,0,294.81,140.62ZM111.09,212.44,22.22,268.72V168ZM146,216.61a7.45,7.45,0,0,1,7.92,0l96.62,61.19H49.42Zm42.87-4.17L277.78,168V268.72Zm77.35-63.53-22.39,11.2V134.83ZM222.79,21.67v149L167,198.55l-1.13-.71a29.74,29.74,0,0,0-31.7,0l-1.13.71-55.81-27.9v-149ZM56.13,160.11,33.44,148.76,56.13,134Z"/><rect class="cls-1" x="99.07" y="48.17" width="101.85" height="22.22"/><rect class="cls-1" x="99.07" y="85.67" width="101.85" height="22.22"/><rect class="cls-1" x="99.07" y="122.71" width="50.93" height="22.22"/></svg>